<svg width="91" height="18" viewBox="0 0 91 18" fill="none" xmlns="http://www.w3.org/2000/svg">
<path d="M0 18V7.5H2.98361V4.5H8.95082V0H11.9344V18H0ZM8.95082 15V7.5H2.98361V15H8.95082Z" fill="white"/>
<path d="M28.3443 18V0H40.2787V3H43.2623V6H40.2787V3H31.3279V6H40.2787V9H31.3279V18H28.3443Z" fill="white"/>
<path d="M44.7541 18V0H47.7377V18H44.7541Z" fill="white"/>
<path d="M52.2131 18V15H49.2295V12H52.2131V9H59.6721V7.5H62.6557V18H52.2131ZM59.6721 15V12H52.2131V15H59.6721ZM59.6721 7.5H49.2295V4.5H59.6721V7.5Z" fill="white"/>
<path d="M67.1311 18V15H74.5902V18H67.1311ZM74.5902 15V12H77.5738V15H74.5902ZM67.1311 15H64.1475V7.5H67.1311V15ZM74.5902 10.5V7.5H77.5738V10.5H74.5902ZM74.5902 7.5H67.1311V4.5H74.5902V7.5Z" fill="white"/>
<path d="M82.0492 18V15H88.0164V13.5H91V18H82.0492ZM82.0492 15H79.0656V7.5H82.0492V4.5H91V10.5H88.0164V12H82.0492V15ZM88.0164 9V7.5H82.0492V9H88.0164Z" fill="white"/>
<path d="M16 15H19V18H16V15Z" fill="white"/>
<path d="M17 12H20V15H17V12Z" fill="white"/>
<path d="M18 9H21V12H18V9Z" fill="white"/>
<path d="M19 6H22V9H19V6Z" fill="white"/>
<path d="M20 3H23V6H20V3Z" fill="white"/>
<path d="M21 0H24V3H21V0Z" fill="white"/>
</svg>
